<svg width="165.000000" height="56.000000" viewBox="0 0 165 56" fill="none" xmlns="http://www.w3.org/2000/svg" xmlns:xlink="http://www.w3.org/1999/xlink">
	<desc>
			Created with Pixso.
	</desc>
	<defs>
		<clipPath id="clip1536_254">
			<rect id="Frame 86" rx="3.500000" width="164.000000" height="55.000000" transform="translate(0.500000 0.500000)" fill="white" fill-opacity="0"/>
		</clipPath>
	</defs>
	<rect id="Frame 86" rx="3.500000" width="164.000000" height="55.000000" transform="translate(0.500000 0.500000)" fill="#2770F1" fill-opacity="1.000000"/>
	<g clip-path="url(#clip1536_254)">
		<path id="Все врачи" d="M27.89 28.55Q27.26 27.77 26.06 27.44Q26.81 27.13 27.27 26.57Q27.36 26.46 27.43 26.34Q27.49 26.26 27.54 26.17Q27.91 25.5 27.91 24.63Q27.91 23.76 27.53 23.1Q27.24 22.61 26.72 22.24Q25.54 21.4 23.41 21.4L17.78 21.4L17.78 34L23.75 34Q26.08 34 27.3 33.08Q27.79 32.71 28.09 32.22Q28.52 31.49 28.52 30.5Q28.52 29.54 28.1 28.84Q28 28.69 27.89 28.55ZM23.21 26.78L20.08 26.78L20.08 23.19L23.21 23.19Q24.35 23.19 24.94 23.65Q25.12 23.79 25.24 23.96Q25.54 24.37 25.54 25Q25.54 25.62 25.24 26.03Q25.12 26.2 24.94 26.33Q24.35 26.78 23.21 26.78ZM32.77 33.57Q33.9 34.12 35.31 34.12Q36.71 34.12 37.78 33.54Q38.35 33.23 38.77 32.78Q39.15 32.38 39.41 31.87L37.68 30.86Q37.32 31.44 36.8 31.77Q36.73 31.82 36.65 31.86Q36.47 31.96 36.28 32.03Q35.82 32.19 35.29 32.19Q34.43 32.19 33.78 31.83Q33.46 31.65 33.19 31.38Q33.01 31.2 32.87 30.99Q32.38 30.26 32.38 29.19Q32.38 28.15 32.86 27.42Q33.01 27.2 33.2 27Q33.51 26.7 33.88 26.5Q34.5 26.18 35.29 26.18Q35.8 26.18 36.26 26.34Q36.46 26.41 36.65 26.52Q36.74 26.56 36.82 26.62Q37.33 26.94 37.68 27.51L39.41 26.51Q39.15 25.99 38.77 25.58Q38.36 25.15 37.8 24.85Q36.73 24.27 35.31 24.27Q33.82 24.27 32.65 24.89Q32.63 24.9 32.62 24.91Q31.92 25.28 31.41 25.82Q31.05 26.19 30.77 26.65Q30.65 26.87 30.54 27.09Q30.11 28.04 30.11 29.19Q30.11 30.33 30.54 31.28Q30.64 31.52 30.77 31.74Q31.04 32.19 31.4 32.57Q31.92 33.12 32.63 33.49Q32.7 33.53 32.77 33.57ZM50.21 29.91Q50.25 29.48 50.25 29.24Q50.25 27.77 49.62 26.64Q49.29 26.04 48.81 25.58Q48.41 25.18 47.9 24.9Q47.77 24.83 47.64 24.76Q46.63 24.27 45.39 24.27Q44.21 24.27 43.22 24.71Q43.02 24.8 42.83 24.91Q42.25 25.23 41.81 25.68Q41.37 26.11 41.06 26.66Q40.93 26.88 40.83 27.11Q40.42 28.06 40.42 29.19Q40.42 30.36 40.86 31.32Q40.96 31.54 41.08 31.74Q41.32 32.14 41.62 32.48Q42.17 33.09 42.94 33.49Q44.15 34.12 45.73 34.12Q46.97 34.12 47.96 33.73Q48.68 33.44 49.23 32.95Q49.43 32.76 49.6 32.55L48.39 31.17Q48.02 31.55 47.58 31.79Q46.79 32.21 45.78 32.21Q44.65 32.21 43.86 31.7Q43.78 31.65 43.71 31.59Q43.35 31.33 43.11 30.98Q42.79 30.52 42.67 29.91L50.21 29.91ZM76.44 24.77Q75.41 24.27 74.15 24.27Q73.16 24.27 72.34 24.62Q71.91 24.8 71.55 25.07Q71.23 25.32 70.96 25.64L70.96 24.38L68.82 24.38L68.82 37.49L71.07 37.49L71.07 32.83Q71.45 33.25 71.9 33.54Q72.84 34.12 74.15 34.12Q75.43 34.12 76.46 33.62Q76.56 33.57 76.66 33.51Q77.16 33.24 77.55 32.87Q78.05 32.4 78.4 31.77Q78.42 31.73 78.45 31.69Q79.03 30.59 79.03 29.19Q79.03 27.78 78.44 26.69Q78.42 26.65 78.4 26.62Q78.06 26.01 77.58 25.55Q77.17 25.17 76.66 24.89Q76.55 24.83 76.44 24.77ZM87.97 25.29Q86.85 24.27 84.72 24.27Q83.53 24.27 82.47 24.58Q81.41 24.89 80.65 25.46L81.53 27.1Q82.07 26.65 82.86 26.4Q83.43 26.22 84.01 26.17Q84.23 26.15 84.45 26.15Q85.64 26.15 86.24 26.69Q86.36 26.79 86.46 26.92Q86.85 27.43 86.85 28.23L86.85 28.38L84.36 28.38Q82.29 28.38 81.33 29.16Q80.9 29.51 80.66 29.95Q80.36 30.51 80.36 31.24Q80.36 31.77 80.54 32.23Q80.64 32.49 80.8 32.73Q80.85 32.81 80.91 32.88Q81.34 33.43 82.06 33.75Q82.87 34.12 83.94 34.12Q85.03 34.12 85.79 33.79Q86.41 33.52 86.8 33.05Q86.89 32.95 86.97 32.83L86.97 34L89.1 34L89.1 28.36Q89.1 26.5 88.17 25.49Q88.07 25.39 87.97 25.29ZM66.05 29.93Q65.61 29.28 64.65 28.99Q65.32 28.7 65.71 28.19Q65.72 28.17 65.74 28.15Q65.83 28.02 65.89 27.89Q66.12 27.44 66.12 26.87Q66.12 26.27 65.87 25.81Q65.63 25.35 65.14 25.03Q64.15 24.38 62.38 24.38L57.68 24.38L57.68 34L62.58 34Q64.49 34 65.46 33.3Q65.86 33.01 66.09 32.62Q66.43 32.06 66.43 31.3Q66.43 30.48 66.05 29.93ZM100.04 34L100.04 24.38L97.79 24.38L97.79 28.59Q97.12 28.91 96.41 29.04Q95.9 29.13 95.38 29.13Q94.38 29.13 93.84 28.69Q93.76 28.62 93.69 28.54Q93.31 28.09 93.31 27.32L93.31 24.38L91.06 24.38L91.06 27.46Q91.06 29.03 91.84 29.88Q91.94 29.99 92.05 30.08Q93.03 30.94 94.89 30.94Q95.5 30.94 96.09 30.83Q96.96 30.67 97.79 30.27L97.79 34L100.04 34ZM105.31 24.38L103.06 24.38L103.06 34L105.13 34L110.42 27.66L110.42 34L112.67 34L112.67 24.38L110.62 24.38L105.31 30.72L105.31 24.38ZM62.18 28.4L59.82 28.4L59.82 26.02L62.18 26.02Q63.38 26.02 63.76 26.58Q63.93 26.83 63.93 27.19Q63.93 27.58 63.75 27.84Q63.36 28.4 62.18 28.4ZM44.06 26.38Q44.64 26.08 45.39 26.08Q46.18 26.08 46.78 26.41Q47.02 26.54 47.23 26.73Q47.49 26.96 47.68 27.24Q48.02 27.75 48.11 28.41L42.66 28.41Q42.76 27.7 43.14 27.18Q43.32 26.93 43.56 26.72Q43.79 26.52 44.06 26.38ZM75.29 31.87Q74.68 32.19 73.9 32.19Q73.26 32.19 72.72 31.96Q72.58 31.9 72.44 31.82Q72.22 31.7 72.03 31.53Q71.67 31.22 71.42 30.77Q71.04 30.09 71.04 29.19Q71.04 28.29 71.42 27.61Q71.67 27.14 72.05 26.83Q72.23 26.67 72.44 26.55Q72.58 26.47 72.72 26.41Q73.26 26.18 73.9 26.18Q74.67 26.18 75.28 26.5Q75.64 26.7 75.94 27.01Q76.13 27.2 76.27 27.41Q76.74 28.15 76.74 29.19Q76.74 30.24 76.26 30.97Q76.12 31.18 75.94 31.37Q75.65 31.67 75.29 31.87ZM25.84 31.43Q25.26 32.19 23.68 32.19L20.08 32.19L20.08 28.49L23.68 28.49Q25.29 28.49 25.86 29.26Q26.16 29.68 26.16 30.32Q26.16 31 25.84 31.43ZM85.73 32.2Q85.14 32.48 84.42 32.48Q83.55 32.48 83.06 32.12Q82.83 31.95 82.71 31.72Q82.58 31.47 82.58 31.15Q82.58 30.77 82.76 30.5Q83.17 29.87 84.52 29.87L86.85 29.87L86.85 30.99Q86.7 31.36 86.46 31.65Q86.23 31.91 85.91 32.1Q85.82 32.15 85.73 32.2ZM64.09 31.76Q63.7 32.36 62.4 32.36L59.82 32.36L59.82 29.89L62.47 29.89Q63.39 29.89 63.82 30.21Q63.95 30.3 64.04 30.43Q64.25 30.71 64.25 31.15Q64.25 31.51 64.09 31.76Z" fill="#FFFFFF" fill-opacity="1.000000" fill-rule="evenodd"/>
		<rect id="Frame 86" rx="0.000000" width="23.000000" height="23.000000" transform="translate(125.500000 16.500000)" fill="#FFFFFF" fill-opacity="0"/>
		<path id="Vector" d="M129 26.6C129 25.32 128.99 24.04 129 22.76C129.02 20.1 131.04 18.04 133.7 18.01C136.23 17.99 138.76 17.99 141.3 18.01C143.95 18.04 145.98 20.1 145.99 22.76C146 25.25 146 27.73 145.99 30.23C145.97 34.65 142.62 38.37 138.33 38.73C133.81 39.11 129.89 36.12 129.11 31.68C129.03 31.2 129.01 30.71 129 30.23C128.99 29.02 129 27.81 129 26.6ZM130.9 29.36C130.74 32.12 131.64 34.38 134 35.84C136.38 37.32 138.85 37.28 141.2 35.72C143.43 34.23 144.25 32.02 144.1 29.36C139.69 29.36 135.32 29.36 130.9 29.36ZM144.09 27.4C144.1 27.25 144.1 27.13 144.1 27.02C144.1 25.62 144.11 24.22 144.1 22.82C144.09 21.08 142.88 19.89 141.13 19.88C138.7 19.88 136.27 19.88 133.84 19.88C132.1 19.88 130.89 21.08 130.87 22.82C130.87 24.21 130.87 25.61 130.87 27.02C130.87 27.13 130.89 27.25 130.9 27.39C135.3 27.4 139.67 27.4 144.09 27.4Z" fill="#FFFFFF" fill-opacity="1.000000" fill-rule="nonzero"/>
		<path id="Vector" d="M140.31 22.71C140.31 23.37 140.31 23.96 140.31 24.59C139.7 24.59 139.11 24.59 138.46 24.59C138.46 25.24 138.46 25.84 138.46 26.47C137.82 26.47 137.22 26.47 136.56 26.47C136.56 25.87 136.56 25.26 136.56 24.62C135.91 24.62 135.32 24.62 134.7 24.62C134.7 23.98 134.7 23.37 134.7 22.72C135.31 22.72 135.91 22.72 136.55 22.72C136.55 22.08 136.55 21.48 136.55 20.86C137.2 20.86 137.8 20.86 138.44 20.86C138.44 21.47 138.44 22.07 138.44 22.71C139.08 22.71 139.68 22.71 140.31 22.71Z" fill="#FFFFFF" fill-opacity="1.000000" fill-rule="nonzero"/>
	</g>
</svg>
