<svg width="24.000000" height="24.000000" viewBox="0 0 24 24" fill="none" xmlns="http://www.w3.org/2000/svg" xmlns:xlink="http://www.w3.org/1999/xlink">
	<desc>
			Created with Pixso.
	</desc>
	<defs>
		<clipPath id="clip1532_187">
			<rect id="Frame 78" rx="3.500000" width="23.000000" height="23.000000" transform="translate(0.500000 0.500000)" fill="white" fill-opacity="0"/>
		</clipPath>
	</defs>
	<rect id="Frame 78" rx="3.500000" width="23.000000" height="23.000000" transform="translate(0.500000 0.500000)" fill="#1B315F" fill-opacity="1.000000"/>
	<g clip-path="url(#clip1532_187)">
		<path id="2" d="M16.19 18L16.19 15.48L11.87 15.48L13.99 13.53Q15.11 12.51 15.5 11.7Q15.67 11.35 15.76 10.98Q15.89 10.5 15.89 9.98Q15.89 9.27 15.63 8.68Q15.51 8.42 15.34 8.18Q15.26 8.07 15.18 7.97Q14.65 7.34 13.8 6.99Q12.82 6.57 11.54 6.57Q9.92 6.57 8.74 7.19Q7.93 7.62 7.36 8.27Q7.1 8.56 6.9 8.91L9.25 10.22Q9.5 9.83 9.84 9.58Q9.97 9.49 10.11 9.41Q10.25 9.34 10.4 9.28Q10.8 9.13 11.25 9.13Q11.96 9.13 12.32 9.44Q12.44 9.53 12.52 9.65Q12.69 9.91 12.69 10.28Q12.69 10.3 12.69 10.32Q12.68 10.71 12.48 11.11Q12.28 11.51 11.67 12.09L7.48 16.01L7.48 18L16.19 18Z" fill="#FFFFFF" fill-opacity="1.000000" fill-rule="evenodd"/>
	</g>
</svg>
