<svg width="48" height="48" viewBox="0 0 48 48" fill="none" xmlns="http://www.w3.org/2000/svg">
<rect width="48" height="48" rx="24" fill="#F1F5FF"/>
<path d="M22.064 26.6695C23.1616 25.6499 24.2239 24.6737 25.2863 23.6902C26.8341 22.2511 28.389 20.8193 29.9298 19.373C30.1056 19.2139 30.1971 18.9608 30.3237 18.7511C30.0212 18.5631 29.8172 18.8017 29.6061 18.9391C26.3698 21.0435 23.1334 23.155 19.9041 25.2739C19.686 25.4185 19.5031 25.4474 19.2569 25.3606C18.1241 24.9485 16.9773 24.558 15.8376 24.1602C15.8165 24.153 15.7883 24.153 15.7672 24.1385C15.3944 23.9939 15.0144 23.8131 15.0004 23.3503C14.9863 22.8947 15.3803 22.7573 15.718 22.6199C21.0298 20.4722 26.3416 18.3316 31.6535 16.1911C31.8927 16.0971 32.1459 16.0248 32.3992 16.0031C32.8284 15.967 33.0676 16.249 32.9832 16.6829C32.35 19.9877 31.7097 23.2924 31.0695 26.59C30.7811 28.0797 30.4926 29.5621 30.2041 31.0446C30.0212 31.9775 29.1981 32.2884 28.4523 31.7027C26.5175 30.184 24.5828 28.6582 22.648 27.1324C22.4791 26.995 22.2962 26.8503 22.064 26.6695Z" fill="#2770F1"/>
</svg>
