<svg width="125" height="128" viewBox="0 0 125 128" fill="none" xmlns="http://www.w3.org/2000/svg">
<g filter="url(#filter0_d_1510_503)">
<path d="M16.6665 58C16.6665 34.804 35.4705 16 58.6665 16C81.8625 16 100.667 34.804 100.667 58C100.667 81.196 81.8625 100 58.6665 100H16.6665V58Z" fill="#2770F1"/>
<path d="M61.4706 55.9C63.9239 56.3 65.8039 57.22 67.1106 58.66C68.4172 60.0733 69.0706 61.8333 69.0706 63.94C69.0706 65.5667 68.6439 67.0733 67.7906 68.46C66.9372 69.82 65.6306 70.9133 63.8706 71.74C62.1372 72.5667 60.0039 72.98 57.4706 72.98C55.4972 72.98 53.5506 72.7267 51.6306 72.22C49.7372 71.6867 48.1239 70.94 46.7906 69.98L49.3106 65.02C50.3772 65.82 51.6039 66.4467 52.9906 66.9C54.4039 67.3267 55.8439 67.54 57.3106 67.54C58.9372 67.54 60.2172 67.2333 61.1506 66.62C62.0839 65.98 62.5506 65.0867 62.5506 63.94C62.5506 61.6467 60.8039 60.5 57.3106 60.5H54.3506V56.22L60.1106 49.7H48.1906V44.5H67.7906V48.7L61.4706 55.9Z" fill="white"/>
</g>
<defs>
<filter id="filter0_d_1510_503" x="-7.3335" y="-4" width="132" height="132" filterUnits="userSpaceOnUse" color-interpolation-filters="sRGB">
<feFlood flood-opacity="0" result="BackgroundImageFix"/>
<feColorMatrix in="SourceAlpha" type="matrix" values="0 0 0 0 0 0 0 0 0 0 0 0 0 0 0 0 0 0 127 0" result="hardAlpha"/>
<feOffset dy="4"/>
<feGaussianBlur stdDeviation="12"/>
<feComposite in2="hardAlpha" operator="out"/>
<feColorMatrix type="matrix" values="0 0 0 0 0.105882 0 0 0 0 0.192157 0 0 0 0 0.372549 0 0 0 0.15 0"/>
<feBlend mode="normal" in2="BackgroundImageFix" result="effect1_dropShadow_1510_503"/>
<feBlend mode="normal" in="SourceGraphic" in2="effect1_dropShadow_1510_503" result="shape"/>
</filter>
</defs>
</svg>
