<svg width="45" height="56" viewBox="0 0 56 56" fill="none" xmlns="http://www.w3.org/2000/svg">
<path d="M0 28C0 12.536 12.536 0 28 0C43.464 0 56 12.536 56 28C56 43.464 43.464 56 28 56H0V28Z" fill="#2770F1"/>
<path fill-rule="evenodd" clip-rule="evenodd" d="M27.9187 20.1716C25.9032 20.2112 24.5772 21.5427 24.2059 23.9686C24.0865 23.995 24.007 24.0081 23.9274 24.0213C21.8854 24.2059 20.4267 25.7221 20.4002 27.6865C20.3737 29.6245 21.7395 31.1802 23.7683 31.4307C24.1661 31.4703 24.2589 31.6285 24.2987 31.9976C24.4843 33.8039 25.9032 35.1354 27.7729 35.3068C29.4834 35.4519 31.141 34.2917 31.6183 32.5909C31.6914 32.3456 31.7331 32.094 31.7736 31.8491C31.7918 31.7386 31.8099 31.6296 31.8305 31.523C34.3897 30.9825 35.6229 29.7564 35.6362 27.7656C35.6362 26.935 35.3975 26.1703 34.8803 25.4979C34.1112 24.4828 33.0372 24.0345 31.8172 23.9686C31.3664 21.4241 30.0271 20.1321 27.9187 20.1716ZM27.0833 23.9422C27.1099 23.3753 27.4281 23.0589 27.9718 22.9798C28.4889 23.0193 28.8072 23.2698 28.9 23.7708C28.9398 23.9686 28.9265 24.1663 28.9132 24.3641C28.7939 26.4604 29.2978 26.9482 31.3531 26.8295C31.5122 26.8163 31.6581 26.8163 31.8172 26.8295C32.4139 26.8823 32.8117 27.2646 32.7587 27.7919C32.7057 28.3589 32.3609 28.6357 31.7907 28.6489C31.5803 28.6546 31.3724 28.6529 31.1648 28.6513C30.8883 28.6492 30.6123 28.647 30.3321 28.6621C29.4834 28.7016 28.9398 29.2554 28.9132 30.0991C28.9066 30.3299 28.9099 30.5606 28.9132 30.7913C28.9166 31.022 28.9199 31.2527 28.9132 31.4835C28.8867 32.1031 28.5552 32.4723 28.0116 32.4855C27.4414 32.4986 27.0966 32.1163 27.0701 31.4571C27.0635 31.2462 27.0668 31.0385 27.0701 30.8309C27.0734 30.6232 27.0767 30.4156 27.0701 30.2046C27.0436 29.2158 26.4999 28.6753 25.4921 28.6621C25.2733 28.6555 25.0512 28.6555 24.8291 28.6555C24.607 28.6555 24.3849 28.6555 24.1661 28.6489C23.5959 28.6357 23.2379 28.3457 23.2246 27.7656C23.2114 27.1723 23.5694 26.8691 24.1263 26.8295C24.4206 26.8058 24.71 26.8105 25.0004 26.8153C25.1943 26.8184 25.3885 26.8216 25.5849 26.8163C26.5132 26.8031 27.0436 26.2626 27.0701 25.3265C27.0767 25.0958 27.0767 24.8651 27.0767 24.6344C27.0767 24.4037 27.0767 24.1729 27.0833 23.9422Z" fill="white"/>
<path fill-rule="evenodd" clip-rule="evenodd" d="M40.0385 14.6079C36.0207 12.2084 32.0426 12.5776 28.1176 15.1617C26.2744 13.8301 24.2058 13.105 21.8853 13.0654C17.4962 12.9468 13.5977 15.3594 11.8871 19.2619C10.1501 23.2303 10.9987 27.6865 14.1281 30.811C17.4905 34.1752 20.8699 37.5225 24.2526 40.8732C25.0988 41.7113 25.9452 42.5497 26.7916 43.3886C27.627 44.206 28.343 44.206 29.1917 43.3754C30.1729 42.413 31.1409 41.4505 32.1089 40.4881C33.0484 39.5578 33.9901 38.6296 34.9318 37.7014C37.2862 35.3807 39.6406 33.0599 41.9612 30.7056C46.6951 25.9198 45.7802 18.049 40.0385 14.6079ZM31.0556 37.6263C30.0604 38.6175 29.0633 39.6105 28.0646 40.6068C28.0268 40.575 27.9928 40.547 27.9621 40.5217C27.8528 40.4316 27.7848 40.3756 27.7331 40.3035C26.5099 39.0874 25.2842 37.8752 24.0591 36.6636C21.3662 34.0003 18.6765 31.3402 16.0243 28.6489C12.338 24.9178 13.5049 18.6554 18.2785 16.5724C21.4079 15.2012 24.3517 15.6627 26.9772 17.8907C27.8789 18.6554 28.4889 18.6818 29.3508 17.8907C32.4404 15.0826 37.108 15.188 39.9987 18.1149C42.8894 21.0549 42.916 25.7352 39.9855 28.6884C37.0294 31.677 34.0509 34.6433 31.0556 37.6263Z" fill="white"/>
</svg>
