<svg width="56" height="56" viewBox="0 0 56 56" fill="none" xmlns="http://www.w3.org/2000/svg">
<rect width="56" height="56" rx="4" fill="#F1F5FF"/>
<path fill-rule="evenodd" clip-rule="evenodd" d="M32.9531 35.7815C30.9914 37.1784 28.5917 38 26 38C19.3726 38 14 32.6274 14 26C14 19.3726 19.3726 14 26 14C32.6274 14 38 19.3726 38 26C38 28.5917 37.1784 30.9914 35.7815 32.9531L41.5874 38.759C42.3685 39.54 42.3685 40.8064 41.5874 41.5874C40.8064 42.3685 39.54 42.3685 38.759 41.5874L32.9531 35.7815ZM34 26C34 30.4183 30.4183 34 26 34C21.5817 34 18 30.4183 18 26C18 21.5817 21.5817 18 26 18C30.4183 18 34 21.5817 34 26Z" fill="#2770F1"/>
</svg>
