<svg width="125" height="128" viewBox="0 0 125 128" fill="none" xmlns="http://www.w3.org/2000/svg">
<g filter="url(#filter0_d_1510_499)">
<path d="M16.3335 58C16.3335 34.804 35.1375 16 58.3335 16C81.5295 16 100.333 34.804 100.333 58C100.333 81.196 81.5295 100 58.3335 100H16.3335V58Z" fill="#2770F1"/>
<path d="M69.0166 67.22V72.5H47.8566V68.3L58.6566 58.1C59.8033 57.0067 60.5766 56.0733 60.9766 55.3C61.3766 54.5 61.5766 53.7133 61.5766 52.94C61.5766 51.82 61.19 50.9667 60.4166 50.38C59.67 49.7667 58.5633 49.46 57.0966 49.46C55.87 49.46 54.7633 49.7 53.7766 50.18C52.79 50.6333 51.9633 51.3267 51.2966 52.26L46.5766 49.22C47.67 47.5933 49.1766 46.3267 51.0966 45.42C53.0166 44.4867 55.2166 44.02 57.6966 44.02C59.7766 44.02 61.59 44.3667 63.1366 45.06C64.71 45.7267 65.9233 46.6867 66.7766 47.94C67.6566 49.1667 68.0966 50.62 68.0966 52.3C68.0966 53.82 67.7766 55.2467 67.1366 56.58C66.4966 57.9133 65.2566 59.4333 63.4166 61.14L56.9766 67.22H69.0166Z" fill="white"/>
</g>
<defs>
<filter id="filter0_d_1510_499" x="-7.6665" y="-4" width="132" height="132" filterUnits="userSpaceOnUse" color-interpolation-filters="sRGB">
<feFlood flood-opacity="0" result="BackgroundImageFix"/>
<feColorMatrix in="SourceAlpha" type="matrix" values="0 0 0 0 0 0 0 0 0 0 0 0 0 0 0 0 0 0 127 0" result="hardAlpha"/>
<feOffset dy="4"/>
<feGaussianBlur stdDeviation="12"/>
<feComposite in2="hardAlpha" operator="out"/>
<feColorMatrix type="matrix" values="0 0 0 0 0.105882 0 0 0 0 0.192157 0 0 0 0 0.372549 0 0 0 0.15 0"/>
<feBlend mode="normal" in2="BackgroundImageFix" result="effect1_dropShadow_1510_499"/>
<feBlend mode="normal" in="SourceGraphic" in2="effect1_dropShadow_1510_499" result="shape"/>
</filter>
</defs>
</svg>
