<svg width="45" height="56" viewBox="0 0 56 56" fill="none" xmlns="http://www.w3.org/2000/svg">
<path d="M0 28C0 12.536 12.536 0 28 0C43.464 0 56 12.536 56 28C56 43.464 43.464 56 28 56H0V28Z" fill="#2770F1"/>
<path d="M27.4569 24.6277C27.4569 24.1745 27.4569 23.8931 27.4569 23.6274C27.4569 21.7989 27.4569 19.9859 27.4569 18.1574C27.4569 17.4541 27.7251 16.8914 28.3877 16.5476C29.0345 16.2194 29.6656 16.2663 30.2493 16.7039C34.7139 20.0172 39.1627 23.3149 43.6116 26.6438C44.5739 27.3627 44.5739 28.5974 43.6116 29.3163C39.147 32.6609 34.6666 35.9742 30.1862 39.3032C29.634 39.7095 29.0345 39.7877 28.4035 39.4751C27.7567 39.1469 27.4569 38.5842 27.4569 37.8809C27.4412 36.0836 27.4569 34.2863 27.4569 32.489C27.4569 32.1764 27.4569 31.8638 27.4569 31.3793C27.1256 31.5981 26.9048 31.7544 26.6997 31.9107C23.4341 34.3332 20.1842 36.7557 16.9186 39.1625C15.7669 40.0221 14.426 39.6626 14.0789 38.4279C14.0158 38.1779 14.0158 37.9122 14.0158 37.6621C14.0158 31.2387 14.0158 24.7996 14 18.3762C14 17.5791 14.2051 16.9227 14.9623 16.5632C15.7038 16.2038 16.3664 16.4069 17.0132 16.8914C20.4366 19.4077 23.86 21.9395 27.4569 24.6277ZM17.4076 34.6145C20.4366 32.364 23.3552 30.1916 26.3368 27.9723C23.3236 25.7373 20.4208 23.5649 17.4076 21.33C17.4076 25.7999 17.4076 30.1134 17.4076 34.6145ZM30.9119 34.5989C33.9251 32.3483 36.8437 30.1916 39.8096 27.9723C36.7963 25.7373 33.8936 23.5806 30.9119 21.3613C30.9119 25.8311 30.9119 30.1447 30.9119 34.5989Z" fill="white"/>
</svg>
