<svg width="125" height="128" viewBox="0 0 125 128" fill="none" xmlns="http://www.w3.org/2000/svg">
<g filter="url(#filter0_d_1510_516)">
<path d="M16.6665 58C16.6665 34.804 35.4705 16 58.6665 16C81.8625 16 100.667 34.804 100.667 58C100.667 81.196 81.8625 100 58.6665 100H16.6665V58Z" fill="#2770F1"/>
<path d="M60.9721 54.94C62.7588 54.94 64.3855 55.3 65.8521 56.02C67.3188 56.74 68.4788 57.7667 69.3321 59.1C70.1855 60.4067 70.6121 61.9267 70.6121 63.66C70.6121 65.5267 70.1455 67.1667 69.2121 68.58C68.2788 69.9933 66.9988 71.0867 65.3721 71.86C63.7721 72.6067 61.9855 72.98 60.0121 72.98C56.0921 72.98 53.0255 71.78 50.8121 69.38C48.5988 66.98 47.4921 63.5533 47.4921 59.1C47.4921 55.9267 48.0921 53.2067 49.2921 50.94C50.4921 48.6733 52.1588 46.9533 54.2921 45.78C56.4521 44.6067 58.9455 44.02 61.7721 44.02C63.2655 44.02 64.6921 44.1933 66.0521 44.54C67.4388 44.86 68.6121 45.3267 69.5721 45.94L67.1721 50.7C65.7855 49.7667 64.0388 49.3 61.9321 49.3C59.5588 49.3 57.6788 49.9933 56.2921 51.38C54.9055 52.7667 54.1588 54.78 54.0521 57.42C55.7055 55.7667 58.0121 54.94 60.9721 54.94ZM59.6521 68.14C61.0388 68.14 62.1588 67.7667 63.0121 67.02C63.8921 66.2733 64.3321 65.26 64.3321 63.98C64.3321 62.7 63.8921 61.6867 63.0121 60.94C62.1588 60.1667 61.0121 59.78 59.5721 59.78C58.1588 59.78 56.9988 60.18 56.0921 60.98C55.1855 61.7533 54.7321 62.7533 54.7321 63.98C54.7321 65.2067 55.1721 66.2067 56.0521 66.98C56.9321 67.7533 58.1321 68.14 59.6521 68.14Z" fill="white"/>
</g>
<defs>
<filter id="filter0_d_1510_516" x="-7.3335" y="-4" width="132" height="132" filterUnits="userSpaceOnUse" color-interpolation-filters="sRGB">
<feFlood flood-opacity="0" result="BackgroundImageFix"/>
<feColorMatrix in="SourceAlpha" type="matrix" values="0 0 0 0 0 0 0 0 0 0 0 0 0 0 0 0 0 0 127 0" result="hardAlpha"/>
<feOffset dy="4"/>
<feGaussianBlur stdDeviation="12"/>
<feComposite in2="hardAlpha" operator="out"/>
<feColorMatrix type="matrix" values="0 0 0 0 0.105882 0 0 0 0 0.192157 0 0 0 0 0.372549 0 0 0 0.15 0"/>
<feBlend mode="normal" in2="BackgroundImageFix" result="effect1_dropShadow_1510_516"/>
<feBlend mode="normal" in="SourceGraphic" in2="effect1_dropShadow_1510_516" result="shape"/>
</filter>
</defs>
</svg>
