<svg width="48" height="48" viewBox="0 0 48 48" fill="none" xmlns="http://www.w3.org/2000/svg">
<rect width="48" height="48" rx="24" fill="#F1F5FF"/>
<path d="M17 25.3331C17 23.5383 17 21.8138 17 20.0072C18.4717 20.0072 19.9094 20.0072 21.4264 20.0072C21.4264 19.6787 21.4151 19.4089 21.4264 19.1508C21.4717 17.5084 21.3585 15.8426 21.6075 14.2354C22.083 11.1149 24.3698 9.13232 27.4717 9.015C28.966 8.95635 30.4717 9.08539 32 9.13232C32 10.7981 32 12.3467 32 13.989C31.6604 13.989 31.3321 13.989 31.0038 13.989C30.2453 14.0008 29.4981 14.0008 28.7396 14.036C27.5623 14.0946 26.8604 14.6929 26.7925 15.8895C26.7132 17.2269 26.7698 18.5759 26.7698 19.9954C28.4566 19.9954 30.1208 19.9954 31.8415 19.9954C31.6151 21.802 31.4 23.5383 31.1736 25.3097C29.7019 25.3097 28.2755 25.3097 26.7698 25.3097C26.7698 29.8966 26.7698 34.4248 26.7698 39C24.9698 39 23.2377 39 21.4264 39C21.4264 34.46 21.4264 29.9318 21.4264 25.3331C19.9208 25.3331 18.483 25.3331 17 25.3331Z" fill="#2770F1"/>
</svg>
