<svg width="48" height="48" viewBox="0 0 48 48" fill="none" xmlns="http://www.w3.org/2000/svg">
<rect width="48" height="48" rx="24" fill="#F1F5FF"/>
<path d="M25.2458 26.0315C23.7999 25.3276 22.7107 24.2295 21.7906 22.9343C21.8641 22.8348 21.9377 22.7388 22.0098 22.6446C22.2233 22.3659 22.4249 22.1027 22.5793 21.8081C22.692 21.5922 22.7295 21.2731 22.6544 21.0572C22.3727 20.2783 22.0535 19.518 21.6873 18.7766C21.5747 18.5513 21.2742 18.2604 21.0489 18.251C20.2414 18.2229 19.265 18.3918 18.7674 19.2552C18.1852 20.2689 18.0256 21.3576 18.4857 22.4087C18.8988 23.3379 19.4434 24.2295 20.0443 25.0554C21.4714 26.9982 23.3116 28.3966 25.6683 29.0536C26.4476 29.2695 27.2362 29.4665 28.0625 29.2976C29.3394 29.0442 30.2313 28.0681 30.3252 26.7823C30.3534 26.3694 30.2313 26.0597 29.8276 25.8719C29.3746 25.6661 28.9253 25.4529 28.475 25.2393C28.2067 25.1119 27.9381 24.9845 27.6681 24.8583C27.2268 24.6612 26.8513 24.7269 26.5602 25.1399C26.4807 25.2528 26.3919 25.3601 26.3029 25.4677C26.1922 25.6015 26.0812 25.7356 25.9875 25.8813C25.7809 26.191 25.565 26.191 25.2458 26.0315Z" fill="#2770F1"/>
<path fill-rule="evenodd" clip-rule="evenodd" d="M18.927 34.2437C20.5794 35.0321 22.307 35.4356 24.1379 35.5107C24.4027 35.4761 24.6685 35.4467 24.9347 35.4173C25.4614 35.3591 25.9894 35.3008 26.5133 35.201C32.5692 34.0748 36.7942 28.1338 35.8741 22.0427C34.8695 15.4166 28.4756 10.921 21.9033 12.2256C14.0635 13.7836 10.045 22.2679 13.7912 29.3258C13.8945 29.5229 13.9133 29.8138 13.8475 30.0203C13.4777 31.1529 13.0968 32.2818 12.7164 33.4094C12.4884 34.0851 12.2606 34.7604 12.0355 35.4356C11.9885 35.5858 11.9791 35.8486 12.0636 35.9331C12.1481 36.0269 12.4016 36.0082 12.5612 35.9612C13.3771 35.7084 14.1913 35.4502 15.0052 35.1922C16.0645 34.8563 17.1234 34.5205 18.1853 34.1968C18.4106 34.1217 18.7204 34.1405 18.927 34.2437ZM16.5454 32.1373C16.2511 32.2295 15.9503 32.3238 15.6408 32.4229C15.7504 32.1007 15.8537 31.791 15.9542 31.4896C16.1551 30.8868 16.345 30.3175 16.5516 29.7481C16.6642 29.4384 16.6173 29.1944 16.4389 28.9222C14.1668 25.5059 14.2888 21.3857 16.7581 18.1196C20.1476 13.6146 27.0015 13.2017 30.8979 17.3125C33.3954 19.9591 34.2029 23.1126 33.048 26.5758C31.8744 30.1047 29.33 32.2071 25.6683 32.864C23.4337 33.2676 21.3212 32.8359 19.3683 31.6627C19.0209 31.4562 18.7204 31.4187 18.3543 31.5501C17.7669 31.7543 17.1708 31.9412 16.5454 32.1373Z" fill="#2770F1"/>
</svg>
